<svg xmlns="http://www.w3.org/2000/svg" viewBox="0 0 32 32">
  <defs>
    <linearGradient id="g" x1="0" y1="0" x2="1" y2="1">
      <stop offset="0%" stop-color="#8b7bff" />
      <stop offset="100%" stop-color="#22d3ee" />
    </linearGradient>
  </defs>
  <rect width="32" height="32" rx="8" fill="#0a0c12" />
  <path
    d="M9 13.5C9 11.6 10.6 10 12.5 10h7c1.9 0 3.5 1.6 3.5 3.5v5c0 1.9-1.6 3.5-3.5 3.5-1 0-1.9-.5-2.5-1.2L16 19l-1 1.8c-.6.7-1.5 1.2-2.5 1.2C10.6 22 9 20.4 9 18.5v-5Z"
    fill="url(#g)"
  />
  <circle cx="13" cy="14.5" r="1.1" fill="#0a0c12" />
  <circle cx="13" cy="17.5" r="1.1" fill="#0a0c12" />
  <circle cx="11.5" cy="16" r="1.1" fill="#0a0c12" />
  <circle cx="14.5" cy="16" r="1.1" fill="#0a0c12" />
  <circle cx="19" cy="15" r="1.2" fill="#0a0c12" />
  <circle cx="21" cy="17" r="1.2" fill="#0a0c12" />
</svg>
